<?xml version="1.0" encoding="utf-8"?>
<!-- Generator: Adobe Illustrator 21.1.0, SVG Export Plug-In . SVG Version: 6.00 Build 0)  -->
<svg version="1.1" id="Layer_1" xmlns="http://www.w3.org/2000/svg" xmlns:xlink="http://www.w3.org/1999/xlink" x="0px" y="0px"
	 viewBox="0 0 15.8 18" xml:space="preserve">
<style type="text/css">
	.st0{fill-rule:evenodd;clip-rule:evenodd;fill:currentColor;}
</style>
<path class="st0" d="M15.7,5.4c0,0.9-0.2,1.6-0.6,2.5C14.4,9.4,14.6,18,8.6,18C7.2,18,0,18,0,18S4.9,5.9,4.9,5.4
	c0-2.6,2-4.9,4.5-5.3C9.8,0,10.1,0,10.4,0c0.3,0,0.7,0,1,0.1c2.2,0.4,3.9,2.1,4.3,4.3C15.7,4.7,15.8,5.1,15.7,5.4L15.7,5.4z
	 M8.6,16.6c4.3,0,4.8-6.8,4.8-6.8c-0.9,0.6-1.9,0.9-3,0.9c-0.3,0-0.7,0-1-0.1c0,0-0.8,4.2-2.6,5.9C7.4,16.6,8.1,16.6,8.6,16.6z
	 M5.4,7.5l-3.6,9.1c0.2,0,0.8,0,1.9,0c3.7,0,4.5-6.3,4.5-6.3C6.9,9.8,5.9,8.8,5.4,7.5z M14.4,4.9c0-0.6-0.2-1.2-0.6-1.6c0,0,0,0,0,0
	v0c-0.5-0.6-1.2-1-2-1c-0.5,0-1,0.2-1.5,0.5C9.9,2.5,9.4,2.4,8.9,2.4c-1.4,0-2.6,1.2-2.6,2.6c0,0.1,0,0.4,0,0.4c0,2.2,1.8,4,4,4
	c2.2,0,4-1.8,4-4C14.4,5.3,14.4,5,14.4,4.9z M12,5.6c-0.3,1-1.6,1.9-1.6,1.9S8.9,6.6,8.6,5.6C8.4,5.5,8.2,5.3,8.2,4.9
	c0-0.4,0.3-0.7,0.7-0.7s0.7,0.3,0.7,0.7c0,0.1,0,0.4,0,0.4c0,0.5,0.9,1.3,0.9,1.3s0.8-0.8,0.8-1.3c0,0,0-0.3,0-0.4
	c0-0.4,0.3-0.7,0.7-0.7s0.7,0.3,0.7,0.7C12.5,5.3,12.3,5.5,12,5.6z"/>
</svg>
